<?xml version="1.0" standalone="no"?>
<!DOCTYPE svg PUBLIC "-//W3C//DTD SVG 20010904//EN"
 "http://www.w3.org/TR/2001/REC-SVG-20010904/DTD/svg10.dtd">
<svg version="1.0" xmlns="http://www.w3.org/2000/svg"
 width="366.000000pt" height="366.000000pt" viewBox="0 0 366.000000 366.000000"
 preserveAspectRatio="xMidYMid meet">
<metadata>
Created by potrace 1.11, written by Peter Selinger 2001-2013
</metadata>
<g transform="translate(0.000000,366.000000) scale(0.100000,-0.100000)"
fill="#000000" stroke="none">
<path d="M0 1830 l0 -1830 1830 0 1830 0 0 1830 0 1830 -1830 0 -1830 0 0
-1830z m2824 1637 c45 -45 45 -169 0 -214 -31 -31 -83 -31 -112 0 -41 44 -41
160 -1 211 27 34 80 36 113 3z m-1721 -444 c23 -15 55 -48 72 -72 27 -39 30
-50 30 -121 0 -71 -3 -82 -30 -121 -45 -64 -100 -99 -168 -106 -151 -15 -261
80 -261 227 0 77 25 134 79 177 52 42 92 53 168 49 56 -3 76 -9 110 -33z m525
21 c85 -35 142 -120 142 -214 0 -175 -180 -283 -339 -204 -128 64 -166 225
-81 342 57 79 186 115 278 76z m581 -10 c169 -85 169 -323 0 -408 -158 -78
-338 29 -339 202 -1 176 179 285 339 206z m577 -10 c30 -18 60 -48 78 -78 26
-41 30 -58 30 -116 0 -58 -4 -75 -30 -116 -98 -160 -332 -148 -410 21 -74 158
46 332 222 323 47 -3 73 -11 110 -34z m-1737 -580 c144 -42 203 -219 116 -346
-72 -106 -235 -126 -334 -41 -58 49 -81 98 -81 173 0 74 23 124 81 173 64 55
130 68 218 41z m564 2 c91 -33 157 -123 157 -216 0 -132 -128 -244 -257 -226
-120 16 -203 109 -203 226 0 157 156 268 303 216z m593 -14 c166 -86 167 -318
2 -403 -117 -60 -259 -13 -314 104 -31 67 -31 127 0 193 54 117 197 165 312
106z m580 -8 c30 -18 60 -48 78 -78 26 -41 30 -58 30 -116 0 -58 -4 -75 -30
-116 -98 -160 -332 -148 -410 21 -74 158 46 332 222 323 47 -3 73 -11 110 -34z
m-1737 -580 c144 -42 203 -219 116 -346 -72 -106 -235 -126 -334 -41 -58 49
-81 98 -81 173 0 74 23 124 81 173 64 55 130 68 218 41z m564 2 c91 -33 157
-123 157 -216 0 -132 -128 -244 -257 -226 -120 16 -203 109 -203 226 0 157
156 268 303 216z m593 -14 c166 -86 167 -318 2 -403 -117 -60 -259 -13 -314
104 -31 67 -31 127 0 193 54 117 197 165 312 106z m580 -8 c30 -18 60 -48 78
-78 26 -41 30 -58 30 -116 0 -58 -4 -75 -30 -116 -98 -160 -332 -148 -410 21
-74 158 46 332 222 323 47 -3 73 -11 110 -34z m-1737 -580 c144 -42 203 -219
116 -346 -72 -106 -235 -126 -334 -41 -58 49 -81 98 -81 173 0 74 23 124 81
173 64 55 130 68 218 41z m564 2 c91 -33 157 -123 157 -216 0 -132 -128 -244
-257 -226 -120 16 -203 109 -203 226 0 157 156 268 303 216z m593 -14 c166
-86 167 -318 2 -403 -117 -60 -259 -13 -314 104 -31 67 -31 127 0 193 54 117
197 165 312 106z m580 -8 c30 -18 60 -48 78 -78 26 -41 30 -58 30 -116 0 -58
-4 -75 -30 -116 -98 -160 -332 -148 -410 21 -74 158 46 332 222 323 47 -3 73
-11 110 -34z m-1143 -578 c91 -33 157 -123 157 -216 0 -93 -66 -183 -157 -216
-49 -17 -661 -20 -728 -3 -53 13 -119 67 -145 120 -27 52 -27 146 0 198 25 50
91 107 138 119 60 16 689 14 735 -2z m584 -14 c78 -41 117 -108 117 -202 0
-159 -134 -260 -286 -216 -159 46 -210 248 -96 372 67 73 175 92 265 46z m517
17 c23 -6 57 -29 86 -58 93 -93 93 -229 0 -322 -147 -147 -382 -48 -382 161 0
161 138 263 296 219z"/>
<path d="M2752 3438 c-19 -19 -16 -143 4 -159 25 -20 44 14 44 79 0 75 -20
108 -48 80z"/>
<path d="M893 2893 c-3 -10 -14 -39 -24 -65 -10 -27 -15 -48 -10 -48 6 0 13 9
16 20 4 14 15 20 35 20 20 0 31 -6 35 -20 3 -11 10 -20 16 -20 7 0 1 21 -38
118 -7 17 -23 15 -30 -5z m27 -22 c0 -5 3 -16 6 -25 4 -12 0 -16 -15 -16 -22
0 -25 8 -15 34 7 17 24 22 24 7z"/>
<path d="M1009 2900 c-40 -23 -29 -105 15 -116 29 -7 66 11 66 31 0 11 -5 10
-20 -5 -24 -24 -34 -25 -54 -4 -20 20 -20 58 0 78 19 20 24 20 52 0 23 -16 30
-6 10 14 -14 14 -47 15 -69 2z"/>
<path d="M1577 2903 c-10 -16 -37 -117 -33 -121 3 -2 12 22 22 54 9 33 18 62
21 67 2 4 2 7 -1 7 -3 0 -7 -3 -9 -7z"/>
<path d="M1481 2868 c0 -9 -11 -19 -23 -21 l-23 -4 22 -8 c12 -4 24 -14 26
-24 4 -14 5 -14 6 2 0 9 8 17 16 17 8 0 15 5 15 10 0 6 -6 10 -14 10 -8 0 -17
8 -19 18 -4 15 -5 15 -6 0z"/>
<path d="M1590 2820 c0 -5 11 -10 25 -10 14 0 25 5 25 10 0 6 -11 10 -25 10
-14 0 -25 -4 -25 -10z"/>
<path d="M2082 2878 c-6 -17 -9 -34 -6 -37 2 -3 7 5 11 17 7 27 20 28 28 2 3
-11 10 -20 16 -20 5 0 1 16 -8 35 -9 19 -19 35 -23 35 -3 0 -11 -14 -18 -32z"/>
</g>
</svg>
